<svg width="62" height="80" xmlns="http://www.w3.org/2000/svg" xmlns:xlink="http://www.w3.org/1999/xlink"><defs><path id="a" d="M0 0h61.75v79.53H0z"/></defs><g fill="none" fill-rule="evenodd"><mask id="b" fill="#fff"><use xlink:href="#a"/></mask><path d="M53.81 62.3c-2.16.26-5.45.69-6.25.91-.8.22-1.6.74-1.94 1.96-.23.8-.65 4.14-.9 6.33a27.04 27.04 0 0 0 9.1-9.2ZM30.9 75.38c4.7 0 9.1-1.22 12.94-3.37a89.57 89.57 0 0 0-.97-6.84 2.63 2.63 0 0 0-1.94-1.96c-1.21-.34-8.21-1.15-8.21-1.15v-.49s7-.81 8.21-1.15c.8-.22 1.6-.74 1.94-1.96.33-1.16 1.07-7.65 1.15-8.34-4.8.9-8.1 3.13-12.22 5.26-4.38 2.27-8.66 3.9-14.22 3.9-4.91 0-9.28-1.62-12.45-3.6a26.82 26.82 0 0 0 25.77 19.7ZM4.56 17.08h2.87v-2.26h1.02c2.67 0 4.36-1.4 4.36-3.82 0-2.66-1.8-3.62-4.75-3.62-1.14 0-2.52.08-3.5.2v9.5Zm9.39 0h2.86v-3.73h2.99v3.73h2.87v-9.5H19.8v3.78h-2.99V7.58h-2.86v9.5Zm10.84 0h2.87v-9.5h-2.87v9.5Zm4.99 0h5.18l.43-1.9h-2.75v-7.6h-2.86v9.5Zm6.64 0h2.86v-9.5h-2.86v9.5Zm5.02 0h2.87v-2.26h1.02c2.67 0 4.36-1.4 4.36-3.82 0-2.66-1.8-3.62-4.75-3.62-1.14 0-2.51.08-3.5.2v9.5Zm-10.55 4.2c-2.27 0-4.47.28-6.57.82.11.95.43 3.6.59 4.14.19.68.63.97 1.07 1.09.67.19 4.44.62 4.44.62v.27s-3.77.45-4.44.64c-.44.12-.88.4-1.07 1.08-.15.53-.45 2.95-.57 4 2.23.3 4.62.58 4.62.58V35s-7 .81-8.2 1.15c-.81.22-1.6.74-1.95 1.96-.32 1.12-1.02 7.26-1.12 8.18 4.93-.9 9.14-3.5 12.3-5.04 4.5-2.2 8.63-4 14.25-4 4.89 0 9.2 1.59 12.36 3.56a26.82 26.82 0 0 0-25.7-19.53Zm24.15-6.82c0 .6-.44.91-1.5.91a8.5 8.5 0 0 1-3.26-.75l.32 2.18a9.4 9.4 0 0 0 2.98.48c2.4 0 4.36-.8 4.36-3.18 0-3.18-4.51-2.58-4.51-4.1 0-.5.5-.75 1.33-.75.9 0 1.89.2 2.55.48l-.23-2.07a11.1 11.1 0 0 0-2.63-.28c-2.32 0-3.9.93-3.9 2.87 0 3.33 4.49 2.66 4.49 4.2ZM44.47 50.04c.06.55.82 7.25 1.15 8.42a2.63 2.63 0 0 0 1.94 1.96c.86.24 4.65.72 6.76.98a27.07 27.07 0 0 0 3.14-9.82 25.4 25.4 0 0 0-9.13-1.83c-1.4 0-2.68.1-3.86.29ZM14.1 33.37c.8-.23 1.6-.74 1.94-1.96.22-.79.63-3.98.9-6.17a27.05 27.05 0 0 0-8.93 9.02 80.3 80.3 0 0 0 6.1-.9ZM4.33 44.94a25.46 25.46 0 0 0 9.08 1.77c1.32 0 2.57-.12 3.76-.32-.1-.97-.8-7.15-1.12-8.27a2.63 2.63 0 0 0-1.94-1.96c-.84-.24-4.49-.7-6.62-.96a27.08 27.08 0 0 0-3.16 9.74Zm19.05-15a1.46 1.46 0 0 0-1.07-1.08c-.53-.15-3-.46-4-.59.18 1.41.37 2.68.5 3.14a2.63 2.63 0 0 0 1.94 1.96c.46.13 1.76.32 3.2.52a52.97 52.97 0 0 0-.57-3.95Zm0-3.7c.15-.53.46-3.02.58-4.05-2.15.59-4.2 1.43-6.1 2.5.1.91.25 2.09.4 3.21.98-.11 3.5-.42 4.05-.57.44-.12.88-.41 1.07-1.09ZM4.32 51.68c3.39 2.18 8.1 3.26 12.05 3.26 5.98 0 9.58-1.8 13.52-3.79 5.43-2.73 9.93-5.62 16.99-5.58a23.4 23.4 0 0 1 10.77 2.61c0-1.14-.08-2.26-.22-3.36-3.38-2.16-8.08-3.27-12.01-3.27-5.98 0-9.57 1.84-13.52 3.83-5.07 2.54-9.92 5.6-16.96 5.6-4.29 0-10.82-2.66-10.82-2.65 0 1.12.07 2.27.2 3.35ZM61.75 1.71v46.6c0 17.2-13.85 31.22-30.87 31.22C13.56 79.53 0 65.51 0 48.3V1.71C4.02 1.21 16.91 0 30.88 0 44.53 0 57.6 1.13 61.75 1.71ZM38.18 67.12c-.15-.52-.5-3.49-.5-3.49h-.2s-.34 2.97-.5 3.5c-.14.52-.48.74-.83.84-.52.14-3.46.5-3.46.5v.2s2.94.36 3.46.5c.35.1.7.32.84.85.15.52.49 3.5.49 3.5h.2s.35-2.98.5-3.5c.15-.53.49-.75.84-.85.52-.14 3.45-.5 3.45-.5v-.2s-2.93-.36-3.45-.5c-.35-.1-.7-.32-.84-.85ZM47 11.04c0-1.2-.67-1.87-2.09-1.87l-.47.01v3.93h.47c1.5 0 2.09-.84 2.09-2.07ZM8.04 13.11h-.47V9.18h.47c1.41 0 2.08.67 2.08 1.86 0 1.23-.59 2.07-2.08 2.07Z" fill="#FEFEFE" mask="url(#b)"/></g></svg>